<?xml version="1.0" encoding="UTF-8"?>
<svg version="1.1" xmlns="http://www.w3.org/2000/svg" width="182" height="205">
<path d="M0 0 C60.06 0 120.12 0 182 0 C182 67.65 182 135.3 182 205 C121.94 205 61.88 205 0 205 C0 137.35 0 69.7 0 0 Z " fill="transparent" transform="translate(0,0)"/>
<path d="M0 0 C1.5612793 1.33691406 1.5612793 1.33691406 2.88671875 3.265625 C3.6454126 4.36874023 3.6454126 4.36874023 4.41943359 5.49414062 C7.36521162 10.16443189 10.10405468 14.93907032 12.8125 19.75 C14.14187073 22.083611 15.4729952 24.41605714 16.80859375 26.74609375 C17.32265778 27.64318306 17.32265778 27.64318306 17.84710693 28.55839539 C21.57814281 35.04453143 25.46993445 41.43017608 29.375 47.8125 C36.06713928 58.76046182 42.62640504 69.7794857 49.08154297 80.86889648 C52.10072329 86.05502792 55.12428616 91.23489636 58.25390625 96.35546875 C58.72642822 97.13446533 59.1989502 97.91346191 59.68579102 98.71606445 C60.52158181 100.0890717 61.36618327 101.45678309 62.22241211 102.81713867 C64.74578342 106.98395091 65.61003735 110.23514386 66 115 C63.46543671 116.00042674 61.64960375 116.22666269 59.05764771 115.32226562 C56.67800581 114.1961411 54.35645639 112.99204403 52.03515625 111.75 C50.73051674 111.07360474 50.73051674 111.07360474 49.39952087 110.38354492 C46.613435 108.93548486 43.83795175 107.46832216 41.0625 106 C39.22920305 105.04165256 37.39522474 104.08460737 35.56054688 103.12890625 C34.66467865 102.66162109 33.76881042 102.19433594 32.84579468 101.71289062 C31.06202513 100.78276759 29.27803014 99.85307678 27.49380493 98.92382812 C23.58168157 96.88347815 19.67938208 94.83178554 15.80810547 92.71484375 C14.57924171 92.05963292 13.35024839 91.40466499 12.12109375 90.75 C11.09298584 90.18796875 10.06487793 89.6259375 9.00561523 89.046875 C2.80682514 86.88779678 -2.63641222 89.41371995 -8.35546875 91.95703125 C-9.04713638 92.25642609 -9.73880402 92.55582092 -10.45143127 92.86428833 C-11.93251534 93.50666411 -13.41192518 94.15291171 -14.88977051 94.80270386 C-17.21294335 95.82368173 -19.54078214 96.83325591 -21.87011719 97.84008789 C-28.69305065 100.79331953 -35.50285246 103.77565804 -42.30049133 106.78663635 C-44.23806997 107.64324552 -46.17779884 108.49476454 -48.1184082 109.34448242 C-50.48526192 110.38271573 -52.84737325 111.43184931 -55.20385742 112.4934082 C-65.05306718 116.80565989 -65.05306718 116.80565989 -71 116 C-71.33 115.67 -71.66 115.34 -72 115 C-71.66638972 109.46474865 -69.96801355 105.6090581 -67.015625 101.03515625 C-66.19147379 99.71146338 -65.36792426 98.38739573 -64.54492188 97.06298828 C-63.91009888 96.05380341 -63.91009888 96.05380341 -63.26245117 95.02423096 C-61.2623099 91.81717791 -59.34369327 88.5629672 -57.421875 85.30859375 C-56.65324464 84.01352356 -55.88436193 82.7186031 -55.11523438 81.42382812 C-54.32680096 80.09506511 -53.53839 78.76628877 -52.75 77.4375 C-51.90951056 76.0214812 -51.06901569 74.60546562 -50.22851562 73.18945312 C-45.64409164 65.46449996 -41.06676053 57.73541153 -36.5 50 C-34.33413578 46.33285869 -32.16739844 42.66623475 -30 39 C-29.44418243 38.05979004 -29.44418243 38.05979004 -28.87713623 37.10058594 C-26.32897035 32.79085687 -23.77857395 28.48245668 -21.22607422 24.17529297 C-20.37571507 22.73976814 -19.52593066 21.30390267 -18.67675781 19.86767578 C-17.4826826 17.8483535 -16.2864995 15.83029383 -15.08984375 13.8125 C-14.73619247 13.2134082 -14.3825412 12.61431641 -14.01817322 11.99707031 C-6.48924432 -0.67700915 -6.48924432 -0.67700915 0 0 Z " fill="#A78BFA" transform="translate(94,78)"/>
<path d="M0 0 C2.33390817 2.33390817 2.78487385 4.38646651 3.64697266 7.51074219 C6.23654371 17.54554825 6.23654371 17.54554825 13 25 C19.03335794 27.89638195 25.49447157 29.52705017 32 31 C32 31.66 32 32.32 32 33 C30.85402344 33.29132812 29.70804688 33.58265625 28.52734375 33.8828125 C16.83321203 36.53883578 16.83321203 36.53883578 8 44 C6.32332141 47.24268532 5.12021223 50.53045378 4 54 C3.7009375 54.87269531 3.401875 55.74539062 3.09375 56.64453125 C2.37515502 58.75706742 1.67782216 60.87410323 1 63 C0.01 62.505 0.01 62.505 -1 62 C-2.07076424 58.74262248 -3.00352168 55.47939751 -3.88085938 52.16601562 C-5.56515333 46.30077335 -7.83428783 41.874577 -13.2890625 38.64453125 C-14.05992188 38.36996094 -14.83078125 38.09539063 -15.625 37.8125 C-16.4809375 37.50441406 -17.336875 37.19632813 -18.21875 36.87890625 C-22.77561297 35.43888635 -27.36511575 34.16312685 -32 33 C-31.67 32.34 -31.34 31.68 -31 31 C-28.79420461 30.27836892 -26.55855544 29.64689687 -24.3125 29.0625 C-16.65456802 27.0651302 -10.27853402 25.09141777 -6 18 C-4.82382818 15.12028931 -4.01515437 12.19933248 -3.25 9.1875 C-1.07988082 1.07988082 -1.07988082 1.07988082 0 0 Z " fill="#A5B4FC" transform="translate(91,8)"/>
</svg>
